<svg width="174" height="24" viewBox="0 0 174 24" fill="none" xmlns="http://www.w3.org/2000/svg">
<path d="M33.0781 6.625L36 14.875L38.9062 6.625H41.9844V18H39.6328V14.8906L39.8672 9.52344L36.7969 18H35.1875L32.125 9.53125L32.3594 14.8906V18H30.0156V6.625H33.0781ZM43.5312 13.6953C43.5312 12.8568 43.6927 12.1094 44.0156 11.4531C44.3385 10.7969 44.8021 10.2891 45.4062 9.92969C46.0156 9.57031 46.7214 9.39062 47.5234 9.39062C48.6641 9.39062 49.5938 9.73958 50.3125 10.4375C51.0365 11.1354 51.4401 12.0833 51.5234 13.2812L51.5391 13.8594C51.5391 15.1562 51.1771 16.1979 50.4531 16.9844C49.7292 17.7656 48.7578 18.1562 47.5391 18.1562C46.3203 18.1562 45.3464 17.7656 44.6172 16.9844C43.8932 16.2031 43.5312 15.1406 43.5312 13.7969V13.6953ZM45.7891 13.8594C45.7891 14.6615 45.9401 15.276 46.2422 15.7031C46.5443 16.125 46.9766 16.3359 47.5391 16.3359C48.0859 16.3359 48.513 16.1276 48.8203 15.7109C49.1276 15.2891 49.2812 14.6172 49.2812 13.6953C49.2812 12.9089 49.1276 12.2995 48.8203 11.8672C48.513 11.4349 48.0807 11.2188 47.5234 11.2188C46.9714 11.2188 46.5443 11.4349 46.2422 11.8672C45.9401 12.2943 45.7891 12.9583 45.7891 13.8594ZM55.0078 9.54688L55.0781 10.5234C55.6823 9.76823 56.4922 9.39062 57.5078 9.39062C58.4036 9.39062 59.0703 9.65365 59.5078 10.1797C59.9453 10.7057 60.1693 11.4922 60.1797 12.5391V18H57.9219V12.5938C57.9219 12.1146 57.8177 11.7682 57.6094 11.5547C57.401 11.3359 57.0547 11.2266 56.5703 11.2266C55.9349 11.2266 55.4583 11.4974 55.1406 12.0391V18H52.8828V9.54688H55.0078ZM61.5469 13.6953C61.5469 12.8568 61.7083 12.1094 62.0312 11.4531C62.3542 10.7969 62.8177 10.2891 63.4219 9.92969C64.0312 9.57031 64.737 9.39062 65.5391 9.39062C66.6797 9.39062 67.6094 9.73958 68.3281 10.4375C69.0521 11.1354 69.4557 12.0833 69.5391 13.2812L69.5547 13.8594C69.5547 15.1562 69.1927 16.1979 68.4688 16.9844C67.7448 17.7656 66.7734 18.1562 65.5547 18.1562C64.3359 18.1562 63.362 17.7656 62.6328 16.9844C61.9089 16.2031 61.5469 15.1406 61.5469 13.7969V13.6953ZM63.8047 13.8594C63.8047 14.6615 63.9557 15.276 64.2578 15.7031C64.5599 16.125 64.9922 16.3359 65.5547 16.3359C66.1016 16.3359 66.5286 16.1276 66.8359 15.7109C67.1432 15.2891 67.2969 14.6172 67.2969 13.6953C67.2969 12.9089 67.1432 12.2995 66.8359 11.8672C66.5286 11.4349 66.0964 11.2188 65.5391 11.2188C64.987 11.2188 64.5599 11.4349 64.2578 11.8672C63.9557 12.2943 63.8047 12.9583 63.8047 13.8594ZM75.6953 11.6641C75.388 11.6224 75.1172 11.6016 74.8828 11.6016C74.0286 11.6016 73.4688 11.8906 73.2031 12.4688V18H70.9453V9.54688H73.0781L73.1406 10.5547C73.5938 9.77865 74.2214 9.39062 75.0234 9.39062C75.2734 9.39062 75.5078 9.42448 75.7266 9.49219L75.6953 11.6641ZM80.5234 18.1562C79.2839 18.1562 78.2734 17.776 77.4922 17.0156C76.7161 16.2552 76.3281 15.2422 76.3281 13.9766V13.7578C76.3281 12.9089 76.4922 12.151 76.8203 11.4844C77.1484 10.8125 77.612 10.2969 78.2109 9.9375C78.8151 9.57292 79.5026 9.39062 80.2734 9.39062C81.4297 9.39062 82.3385 9.75521 83 10.4844C83.6667 11.2135 84 12.2474 84 13.5859V14.5078H78.6172C78.6901 15.0599 78.9089 15.5026 79.2734 15.8359C79.6432 16.1693 80.1094 16.3359 80.6719 16.3359C81.5417 16.3359 82.2214 16.0208 82.7109 15.3906L83.8203 16.6328C83.4818 17.112 83.0234 17.487 82.4453 17.7578C81.8672 18.0234 81.2266 18.1562 80.5234 18.1562ZM80.2656 11.2188C79.8177 11.2188 79.4531 11.3698 79.1719 11.6719C78.8958 11.974 78.7188 12.4062 78.6406 12.9688H81.7812V12.7891C81.7708 12.2891 81.6354 11.9036 81.375 11.6328C81.1146 11.3568 80.7448 11.2188 80.2656 11.2188ZM92.8984 13.8516C92.8984 15.1536 92.6016 16.1979 92.0078 16.9844C91.4193 17.7656 90.6224 18.1562 89.6172 18.1562C88.763 18.1562 88.0729 17.8594 87.5469 17.2656V21.25H85.2891V9.54688H87.3828L87.4609 10.375C88.0078 9.71875 88.7214 9.39062 89.6016 9.39062C90.6432 9.39062 91.4531 9.77604 92.0312 10.5469C92.6094 11.3177 92.8984 12.3802 92.8984 13.7344V13.8516ZM90.6406 13.6875C90.6406 12.901 90.5 12.2943 90.2188 11.8672C89.9427 11.4401 89.5391 11.2266 89.0078 11.2266C88.2995 11.2266 87.8125 11.4974 87.5469 12.0391V15.5C87.8229 16.0573 88.3151 16.3359 89.0234 16.3359C90.1016 16.3359 90.6406 15.4531 90.6406 13.6875ZM93.9531 13.6953C93.9531 12.8568 94.1146 12.1094 94.4375 11.4531C94.7604 10.7969 95.224 10.2891 95.8281 9.92969C96.4375 9.57031 97.1432 9.39062 97.9453 9.39062C99.0859 9.39062 100.016 9.73958 100.734 10.4375C101.458 11.1354 101.862 12.0833 101.945 13.2812L101.961 13.8594C101.961 15.1562 101.599 16.1979 100.875 16.9844C100.151 17.7656 99.1797 18.1562 97.9609 18.1562C96.7422 18.1562 95.7682 17.7656 95.0391 16.9844C94.3151 16.2031 93.9531 15.1406 93.9531 13.7969V13.6953ZM96.2109 13.8594C96.2109 14.6615 96.362 15.276 96.6641 15.7031C96.9661 16.125 97.3984 16.3359 97.9609 16.3359C98.5078 16.3359 98.9349 16.1276 99.2422 15.7109C99.5495 15.2891 99.7031 14.6172 99.7031 13.6953C99.7031 12.9089 99.5495 12.2995 99.2422 11.8672C98.9349 11.4349 98.5026 11.2188 97.9453 11.2188C97.3932 11.2188 96.9661 11.4349 96.6641 11.8672C96.362 12.2943 96.2109 12.9583 96.2109 13.8594ZM115.578 8.52344H112.094V18H109.75V8.52344H106.312V6.625H115.578V8.52344ZM119.961 18.1562C118.721 18.1562 117.711 17.776 116.93 17.0156C116.154 16.2552 115.766 15.2422 115.766 13.9766V13.7578C115.766 12.9089 115.93 12.151 116.258 11.4844C116.586 10.8125 117.049 10.2969 117.648 9.9375C118.253 9.57292 118.94 9.39062 119.711 9.39062C120.867 9.39062 121.776 9.75521 122.438 10.4844C123.104 11.2135 123.438 12.2474 123.438 13.5859V14.5078H118.055C118.128 15.0599 118.346 15.5026 118.711 15.8359C119.081 16.1693 119.547 16.3359 120.109 16.3359C120.979 16.3359 121.659 16.0208 122.148 15.3906L123.258 16.6328C122.919 17.112 122.461 17.487 121.883 17.7578C121.305 18.0234 120.664 18.1562 119.961 18.1562ZM119.703 11.2188C119.255 11.2188 118.891 11.3698 118.609 11.6719C118.333 11.974 118.156 12.4062 118.078 12.9688H121.219V12.7891C121.208 12.2891 121.073 11.9036 120.812 11.6328C120.552 11.3568 120.182 11.2188 119.703 11.2188ZM126.844 9.54688L126.914 10.4922C127.513 9.75781 128.323 9.39062 129.344 9.39062C130.432 9.39062 131.18 9.82031 131.586 10.6797C132.18 9.82031 133.026 9.39062 134.125 9.39062C135.042 9.39062 135.724 9.65885 136.172 10.1953C136.62 10.7266 136.844 11.5286 136.844 12.6016V18H134.578V12.6094C134.578 12.1302 134.484 11.7812 134.297 11.5625C134.109 11.3385 133.779 11.2266 133.305 11.2266C132.628 11.2266 132.159 11.5495 131.898 12.1953L131.906 18H129.648V12.6172C129.648 12.1276 129.552 11.7734 129.359 11.5547C129.167 11.3359 128.839 11.2266 128.375 11.2266C127.734 11.2266 127.271 11.4922 126.984 12.0234V18H124.727V9.54688H126.844ZM146.195 13.8516C146.195 15.1536 145.898 16.1979 145.305 16.9844C144.716 17.7656 143.919 18.1562 142.914 18.1562C142.06 18.1562 141.37 17.8594 140.844 17.2656V21.25H138.586V9.54688H140.68L140.758 10.375C141.305 9.71875 142.018 9.39062 142.898 9.39062C143.94 9.39062 144.75 9.77604 145.328 10.5469C145.906 11.3177 146.195 12.3802 146.195 13.7344V13.8516ZM143.938 13.6875C143.938 12.901 143.797 12.2943 143.516 11.8672C143.24 11.4401 142.836 11.2266 142.305 11.2266C141.596 11.2266 141.109 11.4974 140.844 12.0391V15.5C141.12 16.0573 141.612 16.3359 142.32 16.3359C143.398 16.3359 143.938 15.4531 143.938 13.6875ZM149.984 18H147.719V6H149.984V18ZM156.75 18C156.646 17.7969 156.57 17.5443 156.523 17.2422C155.977 17.8516 155.266 18.1562 154.391 18.1562C153.562 18.1562 152.875 17.9167 152.328 17.4375C151.786 16.9583 151.516 16.3542 151.516 15.625C151.516 14.7292 151.846 14.0417 152.508 13.5625C153.174 13.0833 154.135 12.8411 155.391 12.8359H156.43V12.3516C156.43 11.9609 156.328 11.6484 156.125 11.4141C155.927 11.1797 155.612 11.0625 155.18 11.0625C154.799 11.0625 154.5 11.1536 154.281 11.3359C154.068 11.5182 153.961 11.7682 153.961 12.0859H151.703C151.703 11.5964 151.854 11.1432 152.156 10.7266C152.458 10.3099 152.885 9.98438 153.438 9.75C153.99 9.51042 154.609 9.39062 155.297 9.39062C156.339 9.39062 157.164 9.65365 157.773 10.1797C158.388 10.7005 158.695 11.4349 158.695 12.3828V16.0469C158.701 16.849 158.812 17.4557 159.031 17.8672V18H156.75ZM154.883 16.4297C155.216 16.4297 155.523 16.3568 155.805 16.2109C156.086 16.0599 156.294 15.8594 156.43 15.6094V14.1562H155.586C154.456 14.1562 153.854 14.5469 153.781 15.3281L153.773 15.4609C153.773 15.7422 153.872 15.974 154.07 16.1562C154.268 16.3385 154.539 16.4297 154.883 16.4297ZM163.133 7.46875V9.54688H164.578V11.2031H163.133V15.4219C163.133 15.7344 163.193 15.9583 163.312 16.0938C163.432 16.2292 163.661 16.2969 164 16.2969C164.25 16.2969 164.471 16.2786 164.664 16.2422V17.9531C164.221 18.0885 163.766 18.1562 163.297 18.1562C161.714 18.1562 160.906 17.3568 160.875 15.7578V11.2031H159.641V9.54688H160.875V7.46875H163.133ZM169.727 18.1562C168.487 18.1562 167.477 17.776 166.695 17.0156C165.919 16.2552 165.531 15.2422 165.531 13.9766V13.7578C165.531 12.9089 165.695 12.151 166.023 11.4844C166.352 10.8125 166.815 10.2969 167.414 9.9375C168.018 9.57292 168.706 9.39062 169.477 9.39062C170.633 9.39062 171.542 9.75521 172.203 10.4844C172.87 11.2135 173.203 12.2474 173.203 13.5859V14.5078H167.82C167.893 15.0599 168.112 15.5026 168.477 15.8359C168.846 16.1693 169.312 16.3359 169.875 16.3359C170.745 16.3359 171.424 16.0208 171.914 15.3906L173.023 16.6328C172.685 17.112 172.227 17.487 171.648 17.7578C171.07 18.0234 170.43 18.1562 169.727 18.1562ZM169.469 11.2188C169.021 11.2188 168.656 11.3698 168.375 11.6719C168.099 11.974 167.922 12.4062 167.844 12.9688H170.984V12.7891C170.974 12.2891 170.839 11.9036 170.578 11.6328C170.318 11.3568 169.948 11.2188 169.469 11.2188Z" fill="#F05032"/>
<g clip-path="url(#clip0)">
<path d="M23.546 10.93L13.067 0.452006C12.463 -0.150994 11.485 -0.150994 10.879 0.452006L8.708 2.62701L11.468 5.38701C12.113 5.17201 12.847 5.31701 13.357 5.82801C13.873 6.34301 14.015 7.08601 13.795 7.72801L16.453 10.388C17.098 10.165 17.84 10.31 18.353 10.823C19.074 11.543 19.074 12.707 18.353 13.427C17.634 14.146 16.472 14.146 15.753 13.427C15.214 12.886 15.079 12.09 15.349 11.431L12.86 8.95501V15.48C13.036 15.566 13.202 15.683 13.348 15.828C14.061 16.549 14.061 17.711 13.348 18.428C12.629 19.149 11.459 19.149 10.739 18.428C10.02 17.709 10.02 16.549 10.739 15.83C10.921 15.65 11.126 15.514 11.344 15.424V8.83501C11.127 8.74401 10.92 8.61301 10.744 8.43401C10.199 7.88901 10.068 7.09201 10.348 6.42501L7.636 3.70001L0.45 10.881C-0.15 11.486 -0.15 12.465 0.45 13.07L10.93 23.547C11.534 24.151 12.512 24.151 13.116 23.547L23.546 13.117C24.151 12.514 24.151 11.535 23.546 10.93" fill="#F05032"/>
</g>
<defs>
<clipPath id="clip0">
<rect width="24" height="24" fill="white"/>
</clipPath>
</defs>
</svg>
